<svg width="163" height="121" viewBox="0 0 163 121" fill="none" xmlns="http://www.w3.org/2000/svg">
<path d="M47.4894 120.192L96.1576 13.8711L103.074 0L163 120.192H47.4894Z" fill="white"/>
<path d="M47.7948 119.525C50.2513 119.177 52.6395 118.692 54.9594 118.07C60.2403 116.656 64.8407 114.562 68.7605 111.789C72.6804 109.016 75.7836 105.48 78.0701 101.179C80.3567 96.8781 81.5 91.8419 81.5 86.0699C81.5 81.8824 80.8739 78.0911 79.6217 74.6958C78.3696 71.3005 76.6002 68.358 74.3136 65.8681C73.8833 65.3995 73.4375 64.9479 72.9763 64.5133L47.7948 119.525Z" fill="white"/>
<path d="M64.462 59.0877L36.4915 120.192H0V0H39.8517C44.2071 0 48.5624 0.509284 52.9178 1.52787C57.2732 2.54645 61.1658 4.24407 64.5957 6.62076C68.0256 8.99746 70.8021 12.1098 72.9253 15.9577C75.0486 19.8057 76.1102 24.6156 76.1102 30.3876C76.1102 37.065 74.2592 42.6671 70.5571 47.1942C66.855 51.7212 61.9553 54.8335 55.8577 56.5311V56.8707C58.911 57.244 61.779 57.983 64.462 59.0877Z" fill="white"/>
</svg>
